<svg width="1440" height="900" viewBox="0 0 1440 900" fill="none" xmlns="http://www.w3.org/2000/svg">
  <path d="M0,200 C300,100 600,300 900,200 C1200,100 1500,300 1800,200 L1800,900 L0,900 Z" fill="url(#paint0_linear)" opacity="0.3"/>
  <path d="M0,300 C300,200 600,400 900,300 C1200,200 1500,400 1800,300 L1800,900 L0,900 Z" fill="url(#paint1_linear)" opacity="0.2"/>
  <path d="M0,400 C300,300 600,500 900,400 C1200,300 1500,500 1800,400 L1800,900 L0,900 Z" fill="url(#paint2_linear)" opacity="0.1"/>
  <defs>
    <linearGradient id="paint0_linear" x1="0" y1="0" x2="1440" y2="900" gradientUnits="userSpaceOnUse">
      <stop stop-color="#FF88B3"/>
      <stop offset="1" stop-color="#8794FF"/>
    </linearGradient>
    <linearGradient id="paint1_linear" x1="0" y1="0" x2="1440" y2="900" gradientUnits="userSpaceOnUse">
      <stop stop-color="#A288FF"/>
      <stop offset="1" stop-color="#87CDFF"/>
    </linearGradient>
    <linearGradient id="paint2_linear" x1="0" y1="0" x2="1440" y2="900" gradientUnits="userSpaceOnUse">
      <stop stop-color="#FF88D1"/>
      <stop offset="1" stop-color="#87FFEE"/>
    </linearGradient>
  </defs>
</svg>