<svg width="706" height="255" viewBox="0 0 706 255" fill="none" xmlns="http://www.w3.org/2000/svg">
<path fill-rule="evenodd" clip-rule="evenodd" d="M56.7424 3.25C53.3144 9.921 47.2224 17.985 35.9494 30.772C5.73238 65.049 -0.0546136 75.549 0.000386435 96C0.0373864 110.194 3.84538 122.311 13.5984 139.273L18.0684 147.046L18.6604 137.273C19.7794 118.823 23.4494 109.443 41.1294 79.844C53.0884 59.822 57.0554 51.511 58.0234 44.45C58.3624 41.972 59.0274 39.706 59.5014 39.414C60.5434 38.769 60.5484 38.407 59.3744 49.5C58.1504 61.061 55.5624 68.498 45.0934 90.543C29.4994 123.382 25.8274 137.357 25.9244 163.5C25.9704 175.693 26.3944 181.588 27.4244 184.347C28.9664 188.476 31.0074 189.342 30.6354 185.709C29.1884 171.605 29.2044 169.148 30.7744 163C33.7784 151.241 37.1454 146.365 47.8614 138.245C67.4964 123.369 78.6624 107.604 84.1024 87.078C88.9704 68.709 87.2684 44.153 79.9854 27.685C75.1114 16.664 62.9444 0 59.7704 0C59.0234 0 57.6614 1.462 56.7424 3.25ZM302.111 24.358C296.198 26.081 291.361 27.744 291.361 28.054C291.361 28.363 293.274 29.04 295.611 29.558L299.861 30.5L300.123 69.383C300.303 96.142 300.048 108.673 299.304 109.569C298.709 110.285 296.904 111.161 295.292 111.515C288.263 113.059 293.402 114 308.861 114C317.936 114 325.359 113.663 325.356 113.25C325.353 112.837 323.227 111.825 320.632 111C316.307 109.625 315.844 109.166 315.095 105.5C314.645 103.3 314.409 83.387 314.569 61.249C314.761 34.835 314.517 21.038 313.861 21.112C313.311 21.173 308.024 22.634 302.111 24.358ZM345.704 22.98C342.868 23.989 338.03 25.378 334.954 26.067C331.878 26.755 329.361 27.61 329.361 27.967C329.361 28.324 331.274 29.04 333.611 29.558L337.861 30.5L338.123 69.383C338.303 96.142 338.048 108.673 337.304 109.569C336.709 110.285 334.904 111.161 333.292 111.515C326.394 113.03 331.299 114 345.861 114C360.423 114 365.328 113.03 358.43 111.515C352.705 110.258 352.838 111.445 353.127 64.346C353.338 29.882 353.133 21.015 352.127 21.073C351.43 21.113 348.54 21.972 345.704 22.98ZM263.919 28.936C261.364 31.759 261.477 37.56 264.139 40.222C267.081 43.164 273.102 43.038 275.577 39.982C278.184 36.762 277.945 30.523 275.138 28.557C271.995 26.355 266.074 26.555 263.919 28.936ZM413.094 28.75C409.043 33.245 410.468 39.95 415.913 42.02C418.773 43.107 423.04 41.788 424.998 39.211C426.963 36.623 426.629 31.665 424.322 29.189C421.754 26.432 415.407 26.184 413.094 28.75ZM120.596 30.204C120.816 30.866 122.341 31.756 123.984 32.182C125.627 32.608 127.929 33.979 129.1 35.228C130.273 36.48 137.314 53.708 144.779 73.59C152.232 93.44 159.001 111.288 159.822 113.253C162.625 119.961 164.115 117.862 175.844 90.684C181.822 76.833 187.013 65.143 187.38 64.706C187.748 64.27 192.506 75.632 197.955 89.955C209.686 120.794 209.969 121.088 215.077 107.75C221.312 91.47 238.431 46.414 239.991 42.177C242.157 36.292 245.233 32.978 249.302 32.146C251.177 31.762 252.895 30.898 253.12 30.224C253.428 29.3 250.32 29 240.444 29C232.558 29 227.361 29.39 227.361 29.981C227.361 30.52 228.599 31.222 230.111 31.541C238.365 33.277 238.219 34.999 227.299 64.623C222.256 78.306 217.904 90.512 217.629 91.75C217.353 92.988 216.837 94 216.482 94C215.464 94 196.475 44.562 195.749 40.023C194.989 35.274 197.139 32 201.016 32C202.434 32 203.361 31.407 203.361 30.5C203.361 29.221 200.639 29 184.861 29C172.819 29 166.361 29.36 166.361 30.031C166.361 31.111 167.088 31.445 171.609 32.435C175.212 33.225 178.449 38.267 182.402 49.253L185.552 58.006L177.957 75.84C173.779 85.649 170.361 94.197 170.361 94.837C170.361 96.906 168.61 96.069 168.086 93.75C167.806 92.512 163.479 80.129 158.469 66.23C153.46 52.332 149.361 39.449 149.361 37.603C149.361 34.067 150.604 32.45 153.778 31.858C154.833 31.661 155.883 30.938 156.111 30.25C156.434 29.281 152.45 29 138.361 29C124.642 29 120.293 29.295 120.596 30.204ZM271.361 54.115C268.336 55.096 263.161 56.677 259.861 57.63L253.861 59.362L257.361 60.431C263.635 62.347 263.361 61.178 263.361 86.002C263.361 108.517 263.325 108.912 261.138 110.443C259.916 111.299 258.116 112 257.138 112C256.161 112 255.361 112.45 255.361 113C255.361 113.625 261.361 114 271.361 114C286.452 114 291.588 113.016 283.961 111.585C277.929 110.453 277.909 110.356 277.361 80.014L276.861 52.331L271.361 54.115ZM417.861 54.558C414.011 55.852 408.836 57.451 406.361 58.111L401.861 59.311L406.296 60.646C408.735 61.38 411.091 62.547 411.531 63.24C412.699 65.081 412.552 106.774 411.369 108.984C410.824 110.004 409.024 111.135 407.369 111.498C400.396 113.03 405.24 114 419.861 114C434.401 114 438.965 113.116 432.611 111.53C426.262 109.946 426.361 110.447 426.361 79.845C426.361 64.53 426.024 52.046 425.611 52.102C425.198 52.159 421.711 53.264 417.861 54.558ZM452.133 55.561C446.233 57.245 441.149 58.878 440.837 59.191C440.524 59.504 441.819 60.051 443.714 60.406C445.609 60.762 447.664 61.66 448.28 62.402C449.052 63.332 449.316 70.848 449.13 86.625L448.861 109.5L445.633 111C443.857 111.825 442.395 112.837 442.383 113.25C442.351 114.338 470.136 114.174 470.811 113.081C471.123 112.576 470.03 111.867 468.381 111.504C466.733 111.142 465.102 110.39 464.758 109.833C463.601 107.961 464.364 65.702 465.581 64.235C468.811 60.342 477.528 58.752 482.704 61.11C487.398 63.249 487.861 65.7 487.861 88.398V109.5L484.633 111C482.857 111.825 481.395 112.837 481.383 113.25C481.371 113.663 487.886 114 495.861 114C504.861 114 510.361 113.621 510.361 113C510.361 112.45 509.561 112 508.584 112C507.606 112 505.806 111.299 504.584 110.443C502.413 108.923 502.361 108.42 502.361 88.886C502.361 77.747 501.877 66.965 501.269 64.55C499.368 56.999 492.053 51.988 482.962 52.01C477.534 52.023 469.133 56.033 466.208 60.007L463.861 63.197L463.361 57.848L462.861 52.5L452.133 55.561ZM531.246 53.314C522.094 56.75 517.798 62.789 518.596 71.099C519.327 78.697 522.498 81.891 536.299 88.928C548.8 95.301 551.361 97.57 551.361 102.272C551.361 105.774 548.978 110.549 546.816 111.379C538.421 114.6 525.842 107.368 520.554 96.279C518.216 91.375 516.989 92.226 517.713 98.25C518.06 101.137 518.348 105.753 518.352 108.507L518.361 113.515L523.111 113.665C525.723 113.748 531.911 114.113 536.861 114.477C545.057 115.08 546.258 114.932 550.303 112.819C557.129 109.255 560.649 104.173 561.157 97.145C561.889 87.03 558.364 82.99 542.821 76.126C531.408 71.086 528.361 68.44 528.361 63.57C528.361 55.917 535.994 52.732 544.246 56.941C548.285 59.002 553.802 64.678 555.599 68.623C556.79 71.237 558.943 71.959 557.968 69.418C557.634 68.548 557.361 64.599 557.361 60.642V53.447L553.111 53.38C550.774 53.344 545.711 53.009 541.861 52.636C536.938 52.159 533.788 52.36 531.246 53.314ZM594.799 52.938C589.684 54.162 581.321 59.225 578.235 62.966C573.189 69.084 571.111 76.256 571.563 86C572.031 96.068 575.131 102.867 582.018 108.929C587.184 113.477 591.98 115.007 600.977 114.978C613.011 114.94 622.19 109.156 627.575 98.218C630.512 92.251 630.857 90.651 630.846 83.024C630.831 72.169 628.229 65.865 621.128 59.48C613.945 53.023 604.378 50.645 594.799 52.938ZM657.222 52.472C656.963 52.731 652.275 54.124 646.806 55.567C641.336 57.009 636.497 58.534 636.051 58.954C635.606 59.375 636.884 59.985 638.891 60.311C645.471 61.379 645.361 60.957 645.361 85.188C645.361 97.782 644.938 107.921 644.369 108.984C643.824 110.004 642.024 111.135 640.369 111.498C633.538 112.999 638.137 114 651.861 114C659.836 114 666.351 113.663 666.339 113.25C666.327 112.837 664.865 111.825 663.089 111L659.861 109.5L659.592 87.955L659.323 66.41L662.295 63.563C666.058 59.958 673.43 58.95 678.157 61.395C682.847 63.82 683.509 67.605 683.163 90L682.861 109.5L679.633 111C677.857 111.825 676.395 112.837 676.383 113.25C676.371 113.663 682.886 114 690.861 114C699.861 114 705.361 113.621 705.361 113C705.361 112.45 704.747 112 703.996 112C703.245 112 701.445 111.067 699.996 109.927L697.361 107.855L697.339 86.677C697.314 62.549 696.521 59.116 690.048 55.116C681.633 49.915 670.477 51.486 663.313 58.881L658.764 63.575L659.183 57.788C659.551 52.7 658.862 50.832 657.222 52.472ZM369.361 54.82C369.361 55.27 370.823 56.283 372.611 57.07C378.223 59.539 377.406 61.603 366.651 72.128C361.266 77.398 356.186 81.948 355.361 82.24C354.052 82.703 354.066 82.944 355.47 84.135C356.355 84.886 361.679 91.913 367.3 99.75L377.52 114H388.441C394.447 114 399.356 113.663 399.351 113.25C399.345 112.837 397.658 111.787 395.601 110.915C392.74 109.703 389.104 105.796 380.128 94.293C373.676 86.022 368.146 78.603 367.84 77.807C367.485 76.881 370.465 73.293 376.101 67.859C382.699 61.499 386.232 58.888 390.139 57.483C393.011 56.45 395.361 55.244 395.361 54.802C395.361 54.361 389.511 54 382.361 54C375.211 54 369.361 54.369 369.361 54.82ZM607.984 60.467C613.239 65.951 615.344 72.205 616.073 84.5C616.8 96.755 615.147 104.414 610.845 108.716C608.523 111.038 606.638 112 604.411 112C592.719 112 585.579 97.449 586.569 75.635C587.239 60.862 590.38 56 599.255 56C603.217 56 604.172 56.488 607.984 60.467ZM463.134 138.417C457.234 140.179 452.139 141.888 451.812 142.215C451.485 142.542 452.713 143.129 454.539 143.52C456.366 143.911 458.424 144.684 459.111 145.238C460.071 146.011 460.361 154.91 460.361 183.551C460.361 216.132 460.162 221.056 458.79 222.429C457.925 223.293 456.377 224 455.349 224C454.32 224 453.201 224.45 452.861 225C452.458 225.651 458.037 226 468.861 226C479.685 226 485.264 225.651 484.861 225C484.521 224.45 483.194 224 481.913 224C480.631 224 478.52 223.14 477.222 222.089L474.861 220.177V177.589C474.861 154.165 474.636 135.048 474.361 135.107C474.086 135.165 469.034 136.655 463.134 138.417ZM501.361 138.382C486.946 142.339 487.346 142.129 491.863 143.386C494.064 143.999 496.427 144.864 497.113 145.309C498.074 145.932 498.361 154.726 498.361 183.502V220.887L496.138 222.443C494.916 223.299 493.116 224 492.138 224C491.161 224 490.361 224.45 490.361 225C490.361 225.626 496.547 226 506.92 226C522.583 226 527.256 225.038 518.441 223.629C516.26 223.28 514.112 222.433 513.668 221.747C513.224 221.061 512.636 201.375 512.361 178L511.861 135.5L501.361 138.382ZM83.3614 143.535C63.2784 149.156 51.2984 166.876 52.6244 189C53.4944 203.522 59.4744 214.571 70.4194 221.88C77.7944 226.805 84.5604 228.404 95.4894 227.804C104.275 227.323 109.182 225.506 116.291 220.106C119.976 217.306 127.575 206.155 126.73 204.787C126.448 204.332 123.437 206.826 120.039 210.331C112.84 217.757 108.906 219.448 98.8614 219.435C85.9414 219.417 76.0874 212.546 71.2034 200.147C69.3594 195.464 68.9694 192.451 68.9204 182.5C68.8874 175.713 69.3924 168.762 70.0834 166.5C72.3314 159.145 77.5304 151.776 82.7384 148.564C86.9854 145.944 88.5344 145.56 94.7384 145.588C106.076 145.641 114.194 151.313 119.507 162.894C120.795 165.702 122.476 168 123.241 168C124.392 168 124.508 165.968 123.911 156.25C123.514 149.788 123.046 144.356 122.872 144.181C122.698 144.005 121.71 144.389 120.677 145.034C119.201 145.956 117.628 145.85 113.33 144.538C105.448 142.131 90.2014 141.621 83.3614 143.535ZM539.682 143.167C536.347 144.813 534.876 149.218 536.521 152.639C539.732 159.321 549.513 157.321 550.16 149.85C550.628 144.432 544.735 140.673 539.682 143.167ZM151.566 166.833C134.016 173.098 125.86 193.201 133.561 211.214C136.082 217.112 143.45 224.105 149.629 226.465C160.359 230.563 175.265 226.603 182.962 217.611C192.686 206.251 192.871 186.343 183.361 174.814C176.612 166.632 162.237 163.023 151.566 166.833ZM206.861 166.481C203.561 167.185 199.174 168.06 197.111 168.426C192.987 169.157 191.981 171 195.706 171C200.782 171 201.189 172.76 201.538 196.179C201.838 216.332 202.008 218.058 203.953 220.679C210.963 230.131 223.869 230.587 233.92 221.739L238.361 217.83V222.532C238.361 226.926 238.508 227.192 240.611 226.609C241.849 226.266 247.024 225.232 252.111 224.311C261.634 222.588 263.399 221.522 258.611 220.385C252.287 218.882 252.361 219.233 252.361 190.845C252.361 176.63 252.223 165 252.054 165C251.885 165 246.848 165.9 240.861 167C234.874 168.1 229.837 169 229.668 169C229.499 169 229.361 169.45 229.361 170C229.361 170.55 230.685 171 232.304 171C237.798 171 238.361 173.189 238.361 194.535V213.626L235.437 216.427C232.098 219.626 225.575 220.836 221.063 219.093C216.01 217.142 215.361 213.606 215.361 188.032C215.361 170.22 215.078 165.023 214.111 165.1C213.424 165.156 210.161 165.777 206.861 166.481ZM275.616 168.383C269.431 170.097 264.368 171.787 264.366 172.139C264.363 172.49 265.891 173.064 267.761 173.415C269.63 173.766 271.664 174.66 272.28 175.402C273.052 176.332 273.316 183.848 273.13 199.625L272.861 222.5L269.659 223.535C263.373 225.567 265.233 226 280.253 226C290.149 226 295.263 225.65 294.861 225C294.521 224.45 293.46 224 292.502 224C288.663 224 288.361 222.286 288.361 200.491C288.361 185.095 288.699 178.964 289.611 177.837C293.489 173.044 301.571 171.506 307.302 174.47C311.707 176.747 312.361 180.334 312.361 202.2V222.102L308.861 223.564C306.936 224.369 305.361 225.246 305.361 225.513C305.361 225.781 311.913 226 319.92 226C329.371 226 334.262 225.649 333.861 225C333.521 224.45 332.439 224 331.457 224C330.475 224 328.926 223.177 328.016 222.171C326.587 220.593 326.361 217.49 326.361 199.487C326.361 180.437 326.182 178.261 324.29 174.353C321.223 168.019 316.55 165.5 307.861 165.5C302 165.5 300.088 165.954 296.111 168.292C293.498 169.828 291.351 171.403 291.339 171.792C291.327 172.181 290.399 173.625 289.277 175L287.237 177.5L287.613 171.25C287.82 167.813 287.735 165.06 287.425 165.133C287.115 165.206 281.801 166.668 275.616 168.383ZM353.67 166.582C348.384 168.531 342.688 174.742 341.788 179.537C340.862 184.476 342.743 190.228 346.522 194.007C348.233 195.718 354.184 199.389 359.747 202.164C372.801 208.677 374.361 210.124 374.361 215.72C374.361 231.04 351.504 225.949 343.824 208.918C342.852 206.763 341.749 205 341.373 205C340.702 205 341.267 226.124 341.959 226.893C342.154 227.108 342.994 226.72 343.826 226.029C345.051 225.012 346.569 225.105 351.768 226.512C363.916 229.801 374.581 227.28 380.745 219.664C383.107 216.746 383.824 214.745 384.157 210.145C384.883 200.107 381.17 195.794 366.24 189.333C355.35 184.62 353.729 183.495 352.421 179.743C348.969 169.839 360.015 164.484 370.027 171.208C373.041 173.232 378.513 180.116 379.671 183.342C380.724 186.275 381.132 182.763 380.643 174.977L380.107 166.455L375.984 166.345C373.716 166.285 368.711 165.965 364.861 165.636C359.776 165.2 356.715 165.459 353.67 166.582ZM413.27 166.554C407.016 168.48 400.073 174.849 396.667 181.786C394.189 186.832 393.861 188.612 393.861 197.022C393.861 205.748 394.133 207.096 397.118 213.158C402.207 223.496 409.315 227.873 421.143 227.956C431.054 228.025 435.626 225.51 443.495 215.66C448.844 208.964 448.535 206.663 442.975 211.788C436.439 217.813 432.976 219.299 426.688 218.777C416.857 217.962 409.755 209.301 408.431 196.514L407.757 190H427.104H446.452L445.842 186.25C444.671 179.043 442.239 174.052 438.224 170.615C431.888 165.191 422.6 163.68 413.27 166.554ZM542.861 167.525C539.011 168.827 533.836 170.439 531.361 171.108L526.861 172.323L530.731 173.465C537.18 175.369 537.361 176.041 537.361 198.126C537.361 208.985 536.918 219.034 536.378 220.457C535.72 222.186 534.394 223.243 532.378 223.647C525.414 225.039 530.329 226 544.42 226C558.418 226 562.611 225.1 555.365 223.651C553.297 223.237 552.004 222.192 551.313 220.374C550.692 218.741 550.408 207.476 550.58 191.352C550.734 176.858 550.636 165.034 550.361 165.078C550.086 165.122 546.711 166.223 542.861 167.525ZM575.121 168.384C569.214 170.098 564.376 171.781 564.371 172.125C564.365 172.469 565.781 173.034 567.516 173.381C573.428 174.563 573.361 174.274 573.361 198.467C573.361 218.726 573.199 220.836 571.532 222.345C570.526 223.255 568.978 224 568.091 224C567.205 224 566.201 224.45 565.861 225C565.46 225.649 570.351 226 579.802 226C588.841 226 594.361 225.621 594.361 225C594.361 224.45 593.493 224 592.432 224C587.755 224 587.361 222.184 587.361 200.651C587.361 178.558 587.61 177.474 593.372 174.494C598.199 171.998 603.839 172.562 607.595 175.916L610.861 178.832L611.166 200.444L611.472 222.056L607.916 223.541C605.961 224.358 604.361 225.246 604.361 225.513C604.361 225.781 611.138 226 619.42 226C629.205 226 634.263 225.65 633.861 225C633.521 224.45 632.37 224 631.302 224C630.234 224 628.461 223.1 627.361 222C625.491 220.13 625.36 218.651 625.339 199.25C625.32 181.186 625.076 177.97 623.457 174.405C618.435 163.346 601.427 161.881 591.644 171.664L587.361 175.947V170.474C587.361 167.463 587.024 165.06 586.611 165.134C586.198 165.208 581.028 166.671 575.121 168.384ZM658.095 166.088C644.722 169.239 637.161 180.116 640.284 191.713C641.465 196.099 647.41 202.308 652.158 204.113C654.817 205.124 654.784 205.164 649.449 207.318C643.606 209.678 640.73 212.732 639.78 217.587C638.999 221.58 642.488 225.858 647.377 226.899L650.861 227.641L645.741 230.272C639.186 233.639 635.361 238.124 635.361 242.442C635.361 257.389 669.66 259.315 687.912 245.393C695.924 239.282 697.693 228.367 691.561 222.887C687.578 219.329 680.818 218.003 666.562 217.985C653.372 217.969 650.035 216.949 649.55 212.784C649.089 208.821 653.53 206.902 663.71 206.664C670.642 206.502 672.598 206.051 676.642 203.681C687.728 197.185 690.962 182.309 683.208 173.479C681.528 171.565 680.58 170 681.101 170C681.977 170 690.563 172.863 694.611 174.504C696.145 175.126 696.361 174.569 696.361 170C696.361 165.549 696.118 164.879 694.698 165.424C693.784 165.775 690.071 166.565 686.448 167.18C680.99 168.106 678.627 168.015 672.664 166.649C664.743 164.834 663.603 164.791 658.095 166.088ZM424.401 169.521C428.129 171.448 431.361 177.715 431.361 183.015V187.109L419.87 186.804C409.149 186.52 408.379 186.366 408.376 184.5C408.368 180.121 410.735 174.426 413.864 171.297C417.505 167.656 419.986 167.238 424.401 169.521ZM164.966 170.901C171.66 174.983 175.577 186.026 175.606 200.896C175.628 212.214 174.15 217.87 170.176 221.678C162.648 228.89 151.916 222.402 147.655 208.063C145.62 201.214 145.355 183.16 147.211 177.783C149.935 169.893 158.114 166.722 164.966 170.901ZM667.521 170.086C674.406 173.77 676.178 195.308 670.127 201.75C665.792 206.364 659.004 203.518 655.863 195.769C652.416 187.265 654.064 171.49 658.59 169.669C660.854 168.759 665.441 168.972 667.521 170.086ZM684.861 231.859C689.898 234.784 689.489 241.721 684.084 245.043C679.242 248.019 674.07 249.124 664.859 249.15C650.358 249.19 643.503 244.16 646.341 235.562C648.45 229.17 649.908 228.737 666.861 229.469C678.431 229.969 682.547 230.515 684.861 231.859Z" fill="#0B4F4A"/>
</svg>
